<svg width="103" height="22" viewBox="0 0 103 22" fill="none" xmlns="http://www.w3.org/2000/svg">
<path fill-rule="evenodd" clip-rule="evenodd" d="M6.8573 0.102692C5.7291 0.102692 4.64715 0.590832 3.84941 1.45973L0 5.65243V7.57158C0 8.92746 0.53472 10.1473 1.387 10.9946C0.53472 11.8419 0 13.0617 0 14.4176V16.3367L3.84941 20.5294C4.64715 21.3983 5.7291 21.8865 6.8573 21.8865C8.10215 21.8865 9.2221 21.3041 10 20.3758C10.7779 21.3041 11.8979 21.8865 13.1427 21.8865C14.2709 21.8865 15.3528 21.3983 16.1506 20.5294L20 16.3367V14.4176C20 13.0617 19.4653 11.8419 18.613 10.9946C19.4653 10.1473 20 8.92746 20 7.57158V5.65243L16.1506 1.45973C15.3528 0.590832 14.2709 0.102692 13.1427 0.102692C11.8979 0.102692 10.7779 0.685101 10 1.6134C9.2221 0.685101 8.10215 0.102692 6.8573 0.102692ZM12.8794 10.9946C12.8315 10.9469 12.7844 10.898 12.7383 10.8478L10 7.86523L7.2617 10.8478C7.2156 10.898 7.16855 10.9469 7.1206 10.9946C7.16855 11.0422 7.2156 11.0912 7.2617 11.1414L10 14.1239L12.7383 11.1414C12.7844 11.0912 12.8315 11.0422 12.8794 10.9946ZM11.1111 16.3367V17.2533C11.1111 18.4753 12.0207 19.4661 13.1427 19.4661C13.6815 19.4661 14.1983 19.2329 14.5793 18.818L17.7778 15.3341V14.4176C17.7778 13.1955 16.8682 12.2048 15.7462 12.2048C15.2074 12.2048 14.6906 12.4379 14.3097 12.8529L11.1111 16.3367ZM8.8889 16.3367L5.69035 12.8529C5.30935 12.4379 4.79262 12.2048 4.25381 12.2048C3.13179 12.2048 2.22222 13.1955 2.22222 14.4176V15.3341L5.42075 18.818C5.80175 19.2329 6.3185 19.4661 6.8573 19.4661C7.9793 19.4661 8.8889 18.4753 8.8889 17.2533V16.3367ZM8.8889 4.73589V5.65243L5.69035 9.13626C5.30935 9.55124 4.79262 9.78438 4.25381 9.78438C3.13179 9.78438 2.22222 8.79365 2.22222 7.57158V6.65503L5.42075 3.17122C5.80175 2.75624 6.3185 2.52311 6.8573 2.52311C7.9793 2.52311 8.8889 3.51381 8.8889 4.73589ZM14.3097 9.13626L11.1111 5.65243V4.73589C11.1111 3.51381 12.0207 2.52311 13.1427 2.52311C13.6815 2.52311 14.1983 2.75624 14.5793 3.17122L17.7778 6.65503V7.57158C17.7778 8.79365 16.8682 9.78438 15.7462 9.78438C15.2074 9.78438 14.6906 9.55124 14.3097 9.13626Z" fill="#1E1E1E"/>
<path d="M27.056 5.32799H31.088C33.968 5.32799 36.288 7.71199 36.288 10.672C36.288 13.616 33.968 16 31.088 16H27.056V5.32799ZM29.36 13.952H30.688C32.528 13.952 33.984 12.48 33.984 10.672C33.984 8.86399 32.528 7.37599 30.688 7.37599H29.36V13.952Z" fill="#1E1E1E"/>
<path d="M41.8674 7.96799C44.3474 7.96799 46.3314 9.80799 46.3314 12.064C46.3314 14.32 44.3474 16.144 41.8674 16.144C39.4354 16.144 37.5154 14.32 37.5154 12.064C37.5154 9.80799 39.4354 7.96799 41.8674 7.96799ZM41.8674 9.91999C40.7154 9.91999 39.7234 10.896 39.7234 12.064C39.7234 13.232 40.7154 14.208 41.8674 14.208C43.1154 14.208 44.1074 13.232 44.1074 12.064C44.1074 10.896 43.1154 9.91999 41.8674 9.91999Z" fill="#1E1E1E"/>
<path d="M51.9767 7.96799C54.4567 7.96799 56.4408 9.80799 56.4408 12.064C56.4408 14.32 54.4567 16.144 51.9767 16.144C49.5447 16.144 47.6247 14.32 47.6247 12.064C47.6247 9.80799 49.5447 7.96799 51.9767 7.96799ZM51.9767 9.91999C50.8247 9.91999 49.8327 10.896 49.8327 12.064C49.8327 13.232 50.8247 14.208 51.9767 14.208C53.2247 14.208 54.2168 13.232 54.2168 12.064C54.2168 10.896 53.2247 9.91999 51.9767 9.91999Z" fill="#1E1E1E"/>
<path d="M60.2461 8.12799V8.81599C60.7421 8.30399 61.3981 7.98399 62.0061 7.98399C63.4301 7.98399 64.2941 8.63999 64.7581 9.47199C65.5261 8.52799 66.5661 7.98399 67.7021 7.98399C70.2941 7.98399 71.4781 9.45599 71.4781 11.376V16H69.2701V11.872C69.2701 10.736 68.7901 9.69599 67.7021 9.69599C66.9501 9.69599 66.2461 10.192 65.8781 10.896V16H63.6541V11.712C63.6541 10.72 63.3181 9.69599 62.0061 9.69599C61.3501 9.69599 60.7101 10.048 60.2461 10.784V16H58.0541V8.12799H60.2461Z" fill="#1E1E1E"/>
<path d="M73.4935 5.85599C73.4935 6.46399 73.9415 6.91199 74.5495 6.91199C75.1735 6.91199 75.6215 6.46399 75.6215 5.85599C75.6215 5.24799 75.1735 4.79999 74.5495 4.79999C73.9415 4.79999 73.4935 5.24799 73.4935 5.85599ZM73.4935 16V8.12799H75.6855V16H73.4935Z" fill="#1E1E1E"/>
<path d="M84.7024 8.86399V10.816C83.8864 10.16 82.9424 9.80799 81.9664 9.80799C80.7024 9.80799 79.5824 10.736 79.5824 12.064C79.5824 13.392 80.7024 14.32 81.9664 14.32C82.9424 14.32 83.8864 13.968 84.7024 13.312V15.264C83.9184 15.824 82.9584 16.144 81.9664 16.144C79.5184 16.144 77.3904 14.48 77.3904 12.064C77.3904 9.64799 79.5184 7.98399 81.9664 7.98399C82.9584 7.98399 83.9184 8.30399 84.7024 8.86399Z" fill="#1E1E1E"/>
<path d="M92.3454 16V15.312C91.8174 15.824 91.1134 16.144 90.4734 16.144C88.0254 16.144 86.5854 14.464 86.5854 12.336V8.12799H88.7774V12.336C88.7774 13.488 89.3534 14.448 90.4734 14.448C91.1774 14.448 91.8494 14.08 92.3454 13.344V8.12799H94.5374V16H92.3454Z" fill="#1E1E1E"/>
<path d="M96.3971 15.184V13.216C97.2611 13.952 98.5411 14.336 99.5971 14.336C100.077 14.336 100.669 14.144 100.653 13.584C100.653 13.216 100.157 13.056 99.5171 12.896C98.2051 12.56 96.3491 12.208 96.3491 10.24C96.3491 8.63999 98.0611 7.98399 99.5651 7.98399C100.589 7.98399 101.725 8.30399 102.573 8.92799V10.896C101.741 10.192 100.541 9.79199 99.5491 9.79199C99.0211 9.79199 98.4131 9.96799 98.4131 10.496C98.4131 10.752 98.9411 10.976 99.5331 11.152C100.893 11.6 103.005 12.048 103.005 13.84C103.005 15.536 101.101 16.144 99.5971 16.144C98.5091 16.144 97.2771 15.824 96.3971 15.184Z" fill="#1E1E1E"/>
</svg>
